<svg width="80" height="80" viewBox="0 0 80 80" fill="none" xmlns="http://www.w3.org/2000/svg">
<g id="Frame">
<g id="Group 6">
<path id="Subtract" fill-rule="evenodd" clip-rule="evenodd" d="M58.7167 7.12103C65.373 8.63355 70.7248 13.4124 72.357 19.2782C73.8588 24.6784 72.4193 29.7621 69.1652 33.603C67.0127 36.1485 65.6643 38.9701 64.8235 41.9467C56.9399 42.8386 50.8139 49.5298 50.8139 57.6519C50.8139 63.5714 54.068 68.731 58.8849 71.4392C58.0666 72.5193 56.6717 73.2086 55.1261 73.2086C53.0551 73.2086 51.2494 71.9698 50.7469 70.2043L45.6367 52.2487C44.9607 49.8736 42.5295 48.2067 39.7424 48.2067C36.9553 48.2067 34.524 49.8723 33.848 52.2487L28.7379 70.2043C28.2353 71.9698 26.4297 73.2086 24.3586 73.2086C22.2565 73.2086 20.433 71.9335 19.9601 70.1343L18.8038 65.7304C17.2309 59.7426 16.3518 53.6458 15.6995 47.5283C15.1643 42.5095 13.7826 37.6982 10.3195 33.603C7.06992 29.7608 5.63043 24.6771 7.13218 19.2782C8.7644 13.4124 14.1162 8.63484 20.7725 7.12103C24.246 6.33105 27.6083 7.05098 30.677 8.45843L45.5774 16.8408C46.7397 17.4972 48.194 17.1197 48.8552 16.2182C49.5638 15.2531 49.2436 13.9689 48.1436 13.3501L43.9452 10.9879C44.0917 10.9246 44.24 10.8654 44.3884 10.8062C44.7716 10.6533 45.1545 10.5006 45.5018 10.2771C49.377 7.78259 53.9446 6.03659 58.7167 7.12103Z" fill="#878787"/>
<g id="Group 5">
<path id="Line 9" d="M66.9025 48.9023L66.9025 65.5553" stroke="#878787" stroke-width="4" stroke-linecap="round"/>
<path id="Line 10" d="M75.0878 57.3691L58.4349 57.3691" stroke="#878787" stroke-width="4" stroke-linecap="round"/>
</g>
</g>
</g>
</svg>
